<?xml version="1.0" standalone="no"?>
<!DOCTYPE svg PUBLIC "-//W3C//DTD SVG 20010904//EN"
 "http://www.w3.org/TR/2001/REC-SVG-20010904/DTD/svg10.dtd">
<svg version="1.0" xmlns="http://www.w3.org/2000/svg"
 width="389.000000pt" height="389.000000pt" viewBox="0 0 389.000000 389.000000"
 preserveAspectRatio="xMidYMid meet">
<metadata>
Created by potrace 1.11, written by Peter Selinger 2001-2013
</metadata>
<g transform="translate(0.000000,389.000000) scale(0.100000,-0.100000)"
fill="#000000" stroke="none">
<path d="M1348 3880 c-220 -26 -514 -195 -898 -516 -176 -147 -386 -346 -406
-386 -15 -28 -11 -68 6 -68 4 0 57 38 116 85 271 214 488 255 1044 198 274
-27 516 -7 662 56 61 26 135 94 143 132 4 16 10 31 14 33 22 14 191 -199 191
-240 0 -8 -26 -14 -72 -18 -435 -39 -779 -200 -1064 -499 -197 -205 -334 -466
-396 -750 -30 -139 -33 -474 -5 -612 43 -210 122 -401 241 -580 369 -553 1047
-815 1704 -660 581 138 1044 610 1172 1194 92 415 10 853 -223 1203 -252 378
-674 641 -1107 689 -147 17 -136 12 -144 71 -17 130 -75 303 -143 428 -43 80
-128 196 -149 204 -17 7 -44 -5 -69 -30 -20 -20 -16 -34 47 -161 28 -57 48
-109 45 -117 -12 -32 -35 -15 -55 42 -25 68 -92 147 -162 192 -130 84 -331
128 -492 110z m322 -80 c142 -41 248 -113 300 -204 27 -46 39 -96 24 -96 -3 0
-40 9 -82 19 -165 42 -263 54 -442 55 -104 0 -202 -5 -240 -12 -78 -16 -203
-52 -198 -57 2 -3 26 3 53 11 141 43 358 55 545 30 168 -23 370 -77 370 -100
0 -28 -48 -83 -100 -114 -121 -72 -309 -108 -527 -100 -70 3 -223 14 -340 24
-181 16 -229 17 -340 6 -148 -13 -258 -39 -346 -81 l-62 -29 45 40 c368 332
740 573 964 624 88 20 279 12 376 -16z m569 -697 c15 -57 29 -132 35 -191 5
-51 4 -53 -17 -47 -68 20 -64 20 -43 -3 42 -48 127 -37 190 24 39 38 42 62 3
27 -23 -21 -67 -47 -71 -41 -1 2 0 63 2 137 l4 133 79 -6 c240 -21 517 -126
720 -273 614 -441 814 -1264 472 -1936 -152 -298 -375 -518 -681 -671 -256
-128 -564 -180 -848 -142 -644 85 -1147 557 -1285 1206 -30 140 -33 426 -6
570 58 312 205 589 431 816 176 176 354 287 586 364 107 35 277 68 362 69 l57
1 10 -37z"/>
</g>
</svg>
