<?xml version="1.0" encoding="utf-8"?>
<!-- Generator: Adobe Illustrator 23.0.2, SVG Export Plug-In . SVG Version: 6.00 Build 0)  -->
<svg version="1.1" xmlns="http://www.w3.org/2000/svg" xmlns:xlink="http://www.w3.org/1999/xlink" x="0px" y="0px"
	 viewBox="0 0 500 500" style="enable-background:new 0 0 500 500;" xml:space="preserve">
<style type="text/css">
	.st0{fill:#915016;stroke:#603C09;stroke-width:1.0111;stroke-miterlimit:10;}
	.st1{fill:#915016;stroke:#603C09;stroke-width:0.9583;stroke-miterlimit:10;}
	.st2{fill:#915016;stroke:#603C09;stroke-width:2;stroke-miterlimit:10;}
	.st3{fill:#9B541B;}
	.st4{fill:#774407;}
	.st5{fill:#449311;}
	.st6{fill:#75CA42;}
</style>
<g id="Layer_5">
	<path class="st0" d="M108.2,94.04c-1.32,1.19-8.83-5.03-16.77-13.88c-4.96-5.52-9.72-10.35-11.67-13.8
		c-1.18-2.08-0.81-3.93-0.31-4.37c1.32-1.19,7.93,6.5,15.87,15.35S109.53,92.86,108.2,94.04z"/>
	<path class="st0" d="M162.33,65.24c-1.72,0.44-5.5-8.55-8.43-20.07c-1.83-7.19-3.82-13.67-3.95-17.64
		c-0.08-2.39,1.1-3.85,1.75-4.02c1.72-0.44,4.02,9.43,6.95,20.95C161.59,55.99,164.05,64.8,162.33,65.24z"/>
	<path class="st1" d="M294.52,268.85c0.28,1.16-12.06,5.13-27.56,8.88c-9.67,2.34-18.45,4.69-23.63,5.35
		c-3.12,0.4-4.83-0.22-4.94-0.66c-0.28-1.16,12.96-4.21,28.46-7.96S294.24,267.7,294.52,268.85z"/>
	<path class="st0" d="M408.27,122.75c1.43,1.05-3.12,9.67-10.17,19.24c-4.4,5.97-8.15,11.62-11.13,14.24
		c-1.8,1.57-3.68,1.59-4.22,1.2c-1.43-1.05,4.75-9.09,11.8-18.66C401.59,129.18,406.84,121.69,408.27,122.75z"/>
	<path class="st0" d="M349.05,61.84c-1.32,1.19-8.83-5.03-16.77-13.88c-4.96-5.52-9.72-10.35-11.67-13.8
		c-1.18-2.08-0.81-3.93-0.31-4.37c1.32-1.19,7.93,6.5,15.87,15.35C344.11,53.99,350.37,60.66,349.05,61.84z"/>
</g>
<g id="Layer_2">
	<path class="st2" d="M150.82,438.08c-20.32,20.34-26,43.72-18.43,44.87c7.57,1.15,36.42-33.04,57.23-33.51
		c4.77-0.11,12.14,7.53,20.34,12.77c26.3,16.82,29.42,14.24,30.27,13.72c5.24-3.27-5.64-21.49-7.67-31.62
		c-1.93-9.63,54,33.84,60.17,38.64c6.17,4.8,5.91-6.77,6.15-10.81c1.07-18.39-35.88-23.16-53.92-52.5
		c-8.31-13.53-8.72-25.95-9.46-48.71c-1.81-55.6,22.79-73.16,10.4-99.32c-11.69-24.68-59.59-36.89-56.75-28.85
		C199.08,298.09,174.41,413.48,150.82,438.08z"/>
</g>
<g id="Layer_6">
	<g>
		
			<ellipse transform="matrix(0.1493 -0.9888 0.9888 0.1493 -151.8047 496.9984)" class="st3" cx="212.93" cy="336.72" rx="22.62" ry="13.96"/>
		<path class="st4" d="M199.13,334.64c0.37-2.4,0.95-4.77,1.78-7.05c0.81-2.29,1.87-4.5,3.24-6.52c1.37-2.01,3-3.9,5.06-5.3
			c2.05-1.38,4.6-2.2,7.17-1.9c2.56,0.35,4.88,1.8,6.57,3.7c1.69,1.92,2.87,4.2,3.68,6.58c1.63,4.78,1.76,9.9,1.09,14.82
			c-0.82,4.9-2.44,9.76-5.41,13.84c-1.47,2.03-3.28,3.87-5.46,5.2c-2.17,1.31-4.82,2.01-7.37,1.59c-2.55-0.48-4.74-2.02-6.29-3.94
			c-1.56-1.94-2.56-4.23-3.27-6.56c-0.71-2.34-1.07-4.76-1.17-7.19C198.63,339.47,198.78,337.04,199.13,334.64z M199.13,334.64
			c-0.65,4.79-0.52,9.78,1.05,14.37c0.78,2.28,1.91,4.46,3.49,6.23c1.58,1.76,3.68,3.04,5.96,3.35c2.29,0.25,4.58-0.48,6.48-1.76
			c1.92-1.3,3.47-3.09,4.78-5.03c1.32-1.94,2.33-4.08,3.12-6.3c0.8-2.22,1.36-4.52,1.73-6.85c0.34-2.34,0.48-4.7,0.37-7.06
			c-0.09-2.35-0.44-4.7-1.12-6.94c-0.68-2.23-1.64-4.41-3.08-6.22c-1.45-1.79-3.42-3.16-5.68-3.6c-2.27-0.38-4.66,0.23-6.69,1.45
			c-2.03,1.24-3.76,2.98-5.17,4.93C201.52,325.14,199.93,329.87,199.13,334.64z"/>
	</g>
</g>
<g id="Layer_4">
	<circle class="st5" cx="189.38" cy="241.35" r="43.39"/>
	<ellipse class="st5" cx="145.99" cy="235.6" rx="22.65" ry="21.62"/>
	<ellipse class="st5" cx="113.44" cy="246" rx="22.65" ry="21.62"/>
	<ellipse class="st5" cx="88.08" cy="240.3" rx="22.65" ry="21.62"/>
	<ellipse class="st5" cx="60.46" cy="234.6" rx="22.65" ry="21.62"/>
	<ellipse class="st5" cx="246" cy="263.02" rx="26.72" ry="21.62"/>
	<ellipse class="st5" cx="292.58" cy="252.43" rx="25.44" ry="21.62"/>
	<ellipse class="st5" cx="320.06" cy="228.97" rx="22.65" ry="21.62"/>
	<ellipse class="st5" cx="357.17" cy="220.77" rx="22.65" ry="21.62"/>
	<ellipse class="st5" cx="388.82" cy="214.99" rx="22.65" ry="21.62"/>
	<ellipse class="st5" cx="405.01" cy="211.07" rx="21.92" ry="18.69"/>
	<ellipse class="st5" cx="72.85" cy="184.49" rx="24.26" ry="15.95"/>
	<ellipse class="st5" cx="68.14" cy="157.55" rx="22.65" ry="21.62"/>
	
		<ellipse transform="matrix(0.3485 -0.9373 0.9373 0.3485 -52.0022 154.4614)" class="st5" cx="85.11" cy="114.64" rx="20.52" ry="33.34"/>
	<ellipse class="st5" cx="363.66" cy="118" rx="22.65" ry="21.62"/>
	<ellipse class="st5" cx="402.65" cy="152.49" rx="18.38" ry="21.62"/>
	<ellipse class="st5" cx="268.53" cy="44.54" rx="18.65" ry="18.26"/>
</g>
<g id="Layer_3">
	<ellipse class="st6" cx="189.96" cy="241.5" rx="38.8" ry="40.54"/>
	<ellipse class="st6" cx="113.92" cy="247.49" rx="18.9" ry="17.16"/>
	<ellipse class="st6" cx="90.79" cy="244.76" rx="23.13" ry="14.43"/>
	<ellipse class="st6" cx="64.3" cy="229.28" rx="26.49" ry="24.81"/>
	<circle class="st6" cx="139.48" cy="237.98" r="16.1"/>
	<circle class="st6" cx="64.43" cy="210.68" r="19.65"/>
	<ellipse class="st6" cx="65.4" cy="183.23" rx="15.67" ry="13.23"/>
	<circle class="st6" cx="70.36" cy="155.98" r="23.19"/>
	<ellipse class="st6" cx="104.97" cy="135.32" rx="27.86" ry="6.96"/>
	
		<ellipse transform="matrix(0.3909 -0.9204 0.9204 0.3909 -53.6768 143.4277)" class="st6" cx="81.53" cy="112.27" rx="17.24" ry="30.6"/>
	<ellipse class="st6" cx="91.78" cy="94.04" rx="24.13" ry="14.92"/>
	<ellipse class="st6" cx="129.56" cy="56.23" rx="21.61" ry="13.93"/>
	
		<ellipse transform="matrix(0.247 -0.969 0.969 0.247 17.8207 158.7758)" class="st6" cx="111.07" cy="67.92" rx="22.63" ry="12.11"/>
	<ellipse class="st6" cx="164.91" cy="53.5" rx="28.6" ry="25.62"/>
	<ellipse class="st6" cx="204.21" cy="72.13" rx="16.17" ry="18.9"/>
	<ellipse class="st6" cx="224.85" cy="77.87" rx="13.43" ry="31.09"/>
	<ellipse class="st6" cx="237.03" cy="60.09" rx="25.62" ry="17.78"/>
	<ellipse class="st6" cx="265.14" cy="41.54" rx="21.39" ry="18.54"/>
	<ellipse class="st6" cx="281.37" cy="74.16" rx="13.18" ry="19.4"/>
	<circle class="st6" cx="314.02" cy="70.98" r="24.75"/>
	<ellipse class="st6" cx="347.96" cy="57.53" rx="30.09" ry="26.86"/>
	<circle class="st6" cx="363.66" cy="92.6" r="31.36"/>
	<ellipse class="st6" cx="359.06" cy="116.14" rx="27.05" ry="21.18"/>
	<circle class="st6" cx="360.66" cy="154.73" r="20.39"/>
	<circle class="st6" cx="399.59" cy="150.87" r="20.77"/>
	<ellipse class="st6" cx="410.51" cy="182.73" rx="16.42" ry="18.16"/>
	<ellipse class="st6" cx="410.36" cy="208.14" rx="15.53" ry="17.17"/>
	<ellipse class="st6" cx="247.28" cy="263.02" rx="23.9" ry="19.02"/>
	<ellipse class="st6" cx="292.54" cy="248.92" rx="24.37" ry="22.79"/>
	<circle class="st6" cx="319.27" cy="223.63" r="22.74"/>
	<ellipse class="st6" cx="356.56" cy="218.65" rx="23.26" ry="21.65"/>
	<ellipse class="st6" cx="390.17" cy="220.77" rx="16.9" ry="13.43"/>
	<ellipse class="st6" cx="193.66" cy="148.92" rx="102.87" ry="91.38"/>
	<ellipse class="st6" cx="268.53" cy="134.2" rx="39.77" ry="85.84"/>
	
		<ellipse transform="matrix(0.9143 -0.405 0.405 0.9143 -60.9304 128.2781)" class="st6" cx="272.72" cy="208.15" rx="69.43" ry="45.66"/>
	<ellipse class="st6" cx="157.13" cy="89.46" rx="47.39" ry="31.58"/>
	<ellipse class="st6" cx="106.08" cy="200.44" rx="45.08" ry="41.33"/>
	<ellipse class="st6" cx="326.31" cy="151.14" rx="42.56" ry="71.14"/>
	<ellipse class="st6" cx="382.01" cy="188.32" rx="28.35" ry="33.32"/>
	<circle class="st6" cx="89.48" cy="140.93" r="7.69"/>
</g>
<g id="Layer_7">
</g>
</svg>
